<svg width="194" height="42" viewBox="0 0 194 42" fill="none" xmlns="http://www.w3.org/2000/svg">
<g clip-path="url(#clip0_0_1002)">
<path fill-rule="evenodd" clip-rule="evenodd" d="M0 21.5C0 4.77444 4.17857 0.592651 20.9073 0.592651C37.6345 0.592651 41.8162 4.77122 41.8162 21.5C41.8162 38.2287 37.6361 42.4073 20.9073 42.4073C4.17857 42.4073 0 38.2255 0 21.5ZM11.3979 16.5435C12.6219 16.5435 13.6141 15.5513 13.6141 14.3273C13.6141 13.1033 12.6219 12.111 11.3979 12.111C10.1739 12.111 9.18161 13.1033 9.18161 14.3273C9.18161 15.5513 10.1739 16.5435 11.3979 16.5435ZM11.3979 23.7532C12.6219 23.7532 13.6141 22.7609 13.6141 21.5369C13.6141 20.3129 12.6219 19.3207 11.3979 19.3207C10.1739 19.3207 9.18161 20.3129 9.18161 21.5369C9.18161 22.7609 10.1739 23.7532 11.3979 23.7532ZM13.6141 28.7466C13.6141 29.9706 12.6219 30.9628 11.3979 30.9628C10.1739 30.9628 9.18161 29.9706 9.18161 28.7466C9.18161 27.5226 10.1739 26.5303 11.3979 26.5303C12.6219 26.5303 13.6141 27.5226 13.6141 28.7466ZM31.4132 15.3141C31.4132 15.875 30.9585 16.3298 30.3975 16.3298H17.0357C16.4748 16.3298 16.02 15.875 16.02 15.3141V13.3389C16.02 12.7779 16.4748 12.3232 17.0357 12.3232H30.3943C30.9552 12.3232 31.41 12.7779 31.41 13.3389L31.4132 15.3141ZM16.6552 19.5328C16.3062 19.5328 16.0232 19.8158 16.0232 20.1648V22.909C16.0232 23.2581 16.3062 23.541 16.6552 23.541H30.7812C31.1303 23.541 31.4132 23.2581 31.4132 22.909V20.1648C31.4132 19.8158 31.1303 19.5328 30.7812 19.5328H16.6552ZM16.0232 27.3745C16.0232 27.0254 16.3062 26.7425 16.6552 26.7425H30.7812C31.1303 26.7425 31.4132 27.0254 31.4132 27.3745V30.1187C31.4132 30.4677 31.1303 30.7507 30.7812 30.7507H16.6552C16.3062 30.7507 16.0232 30.4677 16.0232 30.1187V27.3745Z" fill="white"/>
<path d="M61.0281 18.5429C58.8166 17.5786 57.6193 16.8441 57.6193 15.7046C57.6193 14.9011 58.365 14.0975 60.03 14.0975C61.5382 14.1195 63.0241 14.4654 64.387 15.1116C64.675 15.2696 65.0149 15.3038 65.3286 15.2062C65.6423 15.1086 65.9028 14.8876 66.0504 14.5941L66.7704 13.1477C67.0679 12.4873 66.8426 11.7086 66.2384 11.3091C64.3508 10.2296 62.2039 9.68663 60.03 9.73892C55.1073 9.73892 52.904 12.7073 52.904 15.65C52.904 19.332 55.6747 21.0902 58.672 22.4402C61.5938 23.7645 62.984 24.6066 62.984 25.8152C62.984 26.9161 62.0197 27.5991 60.4816 27.5991C58.718 27.5947 56.9913 27.0934 55.4995 26.1527L55.4223 26.1109C55.1105 25.9109 54.7286 25.8525 54.3713 25.9502C54.0919 26.0276 53.8583 26.2197 53.7284 26.4789L52.785 28.4075C52.5577 28.9128 52.7458 29.5082 53.2222 29.7912C55.2776 31.1959 57.7093 31.9471 60.1988 31.9464C65.2291 31.9464 67.8632 28.7707 67.8632 25.632C67.8793 21.7379 65.1665 20.2962 61.0281 18.5429Z" fill="white"/>
<path fill-rule="evenodd" clip-rule="evenodd" d="M72.0718 13.0291C74.0723 10.9348 76.8422 9.74957 79.7384 9.74862C82.3438 9.69647 84.8572 10.7118 86.6953 12.559C88.5334 14.4062 89.5363 16.9246 89.4713 19.5297C89.4713 19.8993 89.4231 20.6274 89.3765 21.0002C89.3276 21.6201 88.8153 22.1011 88.1936 22.1108H74.0893C74.4473 25.117 77.0266 27.3619 80.0534 27.3018C81.8496 27.3184 83.5964 26.7144 84.9986 25.5918C85.2579 25.3681 85.5957 25.257 85.9372 25.2833C86.1969 25.3461 86.4197 25.5121 86.5543 25.7429L87.7709 27.6377C88.0254 27.8598 88.1598 28.1892 88.1332 28.5259C88.1066 28.8626 87.9221 29.1668 87.6359 29.3461C85.4149 31.1286 82.6298 32.0584 79.7834 31.9674C76.8655 32.0005 74.0645 30.8218 72.0481 28.7123C70.0318 26.6028 68.9809 23.7514 69.1458 20.8379C69.0141 17.9447 70.0713 15.1234 72.0718 13.0291ZM84.5229 18.3002C84.3023 15.8056 82.1497 13.9312 79.6484 14.0558C77.0493 13.8863 74.75 15.727 74.3465 18.3002H84.5229Z" fill="white"/>
<path d="M102.287 9.74863C99.9118 9.737 97.6486 10.756 96.0831 12.5418L95.6395 11.1067C95.5071 10.5835 95.0427 10.2124 94.5032 10.1986H93.4232C92.7502 10.2155 92.2083 10.7567 92.1906 11.4297V30.2333C92.2001 30.9098 92.7467 31.4557 93.4232 31.4643H95.4932C96.1618 31.4643 97.1743 31.4643 97.1743 30.2333V17.1142C98.2006 15.5272 99.9456 14.5506 101.835 14.5058C102.448 14.5206 103.052 14.6498 103.617 14.8867C103.891 15.0275 104.211 15.0513 104.503 14.9526C104.819 14.8345 105.072 14.5907 105.202 14.2792L106.282 12.0292C106.474 11.6871 106.466 11.2676 106.261 10.9331C105.715 10.0604 103.85 9.74863 102.287 9.74863Z" fill="white"/>
<path d="M126.439 10.1986H124.414C123.814 10.1986 123.128 10.1986 122.807 10.925L117.182 23.2679L111.804 10.9154C111.625 10.4615 111.176 10.1729 110.689 10.1986H107.944C107.535 10.1668 107.14 10.3578 106.912 10.6984C106.745 11.0232 106.764 11.4127 106.963 11.719L115.963 31.2924C116.18 31.7072 116.609 31.9665 117.077 31.9641H117.349C117.809 31.969 118.23 31.7027 118.422 31.2843L127.413 11.7286C127.618 11.4206 127.64 11.0253 127.469 10.6968C127.241 10.3568 126.847 10.1663 126.439 10.1986Z" fill="white"/>
<path d="M130.5 10.1986H133.022C133.702 10.1986 134.254 10.7505 134.254 11.4313V30.2349C134.254 30.5614 134.125 30.8745 133.894 31.1054C133.663 31.3362 133.35 31.4659 133.023 31.4659H130.5C129.82 31.4659 129.269 30.9148 129.269 30.2349V11.4297C129.268 11.103 129.398 10.7897 129.629 10.5587C129.86 10.3277 130.173 10.1982 130.5 10.1986Z" fill="white"/>
<path d="M131.762 0.825806C130.895 0.827709 130.065 1.17894 129.46 1.80014C128.855 2.42135 128.526 3.26009 128.547 4.12688C128.532 4.98774 128.865 5.81838 129.469 6.43112C130.074 7.04385 130.901 7.38697 131.762 7.38295C132.933 7.38295 134.015 6.75806 134.601 5.74366C135.187 4.72927 135.187 3.47949 134.601 2.46509C134.015 1.4507 132.933 0.825806 131.762 0.825806V0.825806Z" fill="white"/>
<path d="M154.305 24.6066C154.066 24.3887 153.75 24.2772 153.427 24.2975C153.105 24.3178 152.804 24.4682 152.595 24.7143C152.434 24.875 152.261 25.0357 152.092 25.1964C151.053 26.4672 149.499 27.2055 147.857 27.2085C146.221 27.1645 144.671 26.4643 143.556 25.2654C142.442 24.0665 141.856 22.4698 141.932 20.8346C141.7 18.3237 143.117 15.9508 145.437 14.9635C147.757 13.9761 150.45 14.6005 152.098 16.5082C152.442 16.8537 153.027 17.4291 153.779 16.7364L155.398 15.2546C155.672 15.0454 155.849 14.7331 155.888 14.3902C155.926 14.0473 155.823 13.7035 155.602 13.4385C153.773 11.0231 150.885 9.64689 147.857 9.74855C141.775 9.8183 136.896 14.7971 136.949 20.8796C136.887 23.8 138.004 26.6223 140.048 28.7091C142.092 30.7958 144.891 31.9709 147.812 31.9689C151.157 32.0236 154.294 30.3509 156.113 27.5428C156.385 27.1346 156.536 26.4918 155.702 25.738L154.305 24.6066Z" fill="white"/>
<path fill-rule="evenodd" clip-rule="evenodd" d="M160.085 13.0291C162.086 10.9348 164.856 9.74955 167.752 9.7486C170.359 9.69506 172.874 10.7103 174.713 12.5584C176.552 14.4065 177.554 16.9265 177.488 19.5329C177.488 19.9025 177.441 20.6306 177.395 21.0034C177.345 21.6235 176.832 22.1043 176.21 22.114H162.108C162.466 25.1174 165.043 27.3603 168.067 27.3018C169.863 27.3181 171.61 26.7141 173.012 25.5918C173.271 25.3681 173.609 25.257 173.951 25.2832C174.21 25.3461 174.433 25.5121 174.568 25.7429L175.784 27.6377C176.038 27.8601 176.172 28.1893 176.146 28.5258C176.119 28.8622 175.935 29.1663 175.649 29.3461C173.428 31.1282 170.643 32.0579 167.797 31.9673C164.879 32.0005 162.078 30.8218 160.062 28.7123C158.045 26.6028 156.994 23.7514 157.159 20.8379C157.028 17.9446 158.085 15.1234 160.085 13.0291ZM172.535 18.3002C172.314 15.8062 170.163 13.932 167.662 14.0557C165.063 13.8862 162.763 15.7268 162.358 18.3002H172.535Z" fill="white"/>
<path d="M187.129 18.5429C184.918 17.5786 183.721 16.8442 183.721 15.7047C183.721 14.9011 184.466 14.0976 186.131 14.0976C187.639 14.1197 189.125 14.4656 190.488 15.1117C190.776 15.2692 191.116 15.3031 191.43 15.2056C191.743 15.108 192.004 14.8874 192.152 14.5942L192.873 13.1477C193.172 12.4871 192.946 11.7073 192.34 11.3092C190.452 10.2292 188.305 9.6862 186.131 9.73899C181.21 9.73899 179.007 12.7074 179.007 15.6501C179.007 19.332 181.778 21.0902 184.775 22.4402C187.695 23.7629 189.085 24.6067 189.085 25.8152C189.085 26.9161 188.121 27.5992 186.583 27.5992C184.822 27.5959 183.098 27.0974 181.607 26.1608L181.533 26.1206C181.221 25.9197 180.837 25.8613 180.479 25.9599C180.203 26.0401 179.974 26.2317 179.846 26.4886L178.902 28.4172C178.674 28.9221 178.862 29.5179 179.338 29.801C181.393 31.2056 183.825 31.9568 186.315 31.9561C191.346 31.9561 193.981 28.7804 193.981 25.6417C193.982 21.7379 191.268 20.2963 187.129 18.5429Z" fill="white"/>
</g>
<defs>
<clipPath id="clip0_0_1002">
<rect width="194" height="42" fill="white"/>
</clipPath>
</defs>
</svg>
